<?xml version="1.0" standalone="no"?>
<!DOCTYPE svg PUBLIC "-//W3C//DTD SVG 20010904//EN"
 "http://www.w3.org/TR/2001/REC-SVG-20010904/DTD/svg10.dtd">
<svg version="1.0" xmlns="http://www.w3.org/2000/svg"
 width="300.000000pt" height="300.000000pt" viewBox="0 0 300.000000 300.000000"
 preserveAspectRatio="xMidYMid meet">
<metadata>
Created by potrace 1.11, written by Peter Selinger 2001-2013
</metadata>
<g transform="translate(0.000000,300.000000) scale(0.100000,-0.100000)"
fill="#000000" stroke="none">
<path d="M0 1500 l0 -1500 1500 0 1500 0 0 1500 0 1500 -1500 0 -1500 0 0
-1500z m2430 1010 l0 -120 -395 0 -395 0 0 -70 0 -70 -140 0 -140 0 0 70 0 70
-395 0 -395 0 0 120 0 120 930 0 930 0 0 -120z m-790 -610 l0 -110 -140 0
-140 0 0 110 0 110 140 0 140 0 0 -110z m0 -475 l0 -125 -140 0 -140 0 0 125
0 125 140 0 140 0 0 -125z m0 -485 l0 -120 -140 0 -140 0 0 120 0 120 140 0
140 0 0 -120z m0 -470 l0 -110 -140 0 -140 0 0 110 0 110 140 0 140 0 0 -110z"/>
</g>
</svg>
